# xmcd
#
# Track frame offsets:
#	150
#	12917
#	26870
#	42995
#	55692
#	68679
#	85533
#	96165
#	107808
#	120253
#	132988
#	147088
#	157345
#	170770
#	182861
#	195835
#	207615
#	223341
#
# Disc length: 3110
#
# Revision: 2
# Processed by: cddbd v1.5.1PL0 Copyright (c) Steve Scherf et al.
# Submitted via: DiscPlay 4.0.4
# Normalized: r1:TDELIM( - )
#
DISCID=050c2412
DTITLE=Various Artist - Blues Brother Soul Sister Vol. 2
DYEAR=1900
DGENRE=
TTITLE0=Bob and Earl - Harlem Shuffle
TTITLE1=Howlin' Wolf - Smokestack Lightning
TTITLE2=Nina Simone - My Baby Just Cares For Me
TTITLE3=Percy Sledge - When A Man Loves A Woman
TTITLE4=Freda Payne - Band Of Gold
TTITLE5=illiam De Vaughn - Be Thankful For What You've Got
TTITLE6=The Tams - Hey Girl Don't Bother Me
TTITLE7=Maxine Brown - Oh No Not My Baby
TTITLE8=Little Willie John - Fever
TTITLE9=Tommy Tucker - Hi-Heeled Sneakers
TTITLE10=Carol Fran - The Great Pretender
TTITLE11=Brenton Wood - Gimme Little Sign
TTITLE12=Ad Libs - Boy From NY City
TTITLE13=Shirelles - Will You Love Me Tomorrow
TTITLE14=Billie Holiday - That Old Devil Called Love
TTITLE15=Barbara Lewis - Hello Stranger
TTITLE16=Dobie Gray - Drift Away
TTITLE17=Jimmy Reed - Ain't That Lovin' You Baby
EXTD=
EXTT0=
EXTT1=
EXTT2=
EXTT3=
EXTT4=
EXTT5=
EXTT6=
EXTT7=
EXTT8=
EXTT9=
EXTT10=
EXTT11=
EXTT12=
EXTT13=
EXTT14=
EXTT15=
EXTT16=
EXTT17=
PLAYORDER=
